<svg width="19" height="19" viewBox="0 0 19 19" fill="none" xmlns="http://www.w3.org/2000/svg">
<g clip-path="url(#clip0_270_9)">
<mask id="mask0_270_9" style="mask-type:luminance" maskUnits="userSpaceOnUse" x="0" y="0" width="19" height="19">
<path d="M9.52952 18.5295C14.5164 18.5295 18.559 14.4868 18.559 9.49998C18.559 4.51311 14.5164 0.470459 9.52952 0.470459C4.54265 0.470459 0.5 4.51311 0.5 9.49998C0.5 14.4868 4.54265 18.5295 9.52952 18.5295Z" fill="white"/>
</mask>
<g mask="url(#mask0_270_9)">
<path d="M18.4529 9.44678C18.4867 9.4671 18.5319 9.44001 18.5319 9.40163C18.48 4.46926 14.4664 0.487244 9.52493 0.487244C7.91767 0.487244 6.40974 0.909373 5.10498 1.64754C5.07112 1.66785 5.07112 1.71752 5.10498 1.73783L18.4551 9.44452L18.4529 9.44678Z" fill="#FC1C49"/>
<path d="M1.76622 5.07349C1.7459 5.03963 1.69624 5.03963 1.67592 5.07349C0.940012 6.38051 0.515625 7.88844 0.515625 9.4957C0.515625 14.4394 4.49764 18.4507 9.42776 18.5026C9.46839 18.5026 9.49322 18.4597 9.47291 18.4236L1.76622 5.07349Z" fill="#FC1C49"/>
<path d="M3.4325 3.44005L11.918 18.1378C11.9293 18.1582 11.9541 18.1672 11.9767 18.1627C14.9767 17.3139 17.3402 14.9527 18.189 11.9504C18.1958 11.9278 18.1845 11.903 18.1642 11.8917L3.46862 3.40393C3.44604 3.39039 3.42121 3.41522 3.43476 3.43779L3.4325 3.44005Z" fill="#FC1C49"/>
</g>
</g>
<defs>
<clipPath id="clip0_270_9">
<rect width="19" height="19" fill="white"/>
</clipPath>
</defs>
</svg>
